<svg xmlns="http://www.w3.org/2000/svg" xml:space="preserve" id="Layer_1" x="0" y="0"
    style="enable-background:new 0 0 1813.13 302.19" version="1.1" viewBox="0 0 1813.13 302.19">
<path d="M319.191 147.965L300.13 148.928" stroke="#59886D" stroke-width="2"/>
<path d="M297.089 211.305L296.746 159.554" stroke="#59886D" stroke-width="2"/>
<path d="M283.06 143.262L281.86 130.96C281.563 127.845 280.557 127.593 278.843 130.204L263.348 153.674" stroke="#004078" stroke-width="2"/>
<path d="M249.109 164.259C229.111 175.896 214.37 182.998 204.885 185.564C184.704 190.993 170.42 193.605 162.032 193.399C128.687 192.505 98.0271 182.632 70.0527 163.778" stroke="#004078" stroke-width="2"/>
<path d="M58.3334 155.356L40.0609 130.58C39.8724 130.324 39.6168 130.126 39.3225 130.007C39.0283 129.889 38.7069 129.854 38.3942 129.907C38.0815 129.961 37.7898 130.1 37.5514 130.31C37.313 130.52 37.1374 130.792 37.044 131.096C33.8558 141.679 39.0324 143.673 44.6204 150.202" stroke="#004078" stroke-width="2"/>
<path d="M3.25052 160.03C2.42774 170.717 10.347 188.792 17.4777 198.276C17.8259 198.733 18.3321 199.043 18.8968 199.145C19.4614 199.247 20.0436 199.133 20.5288 198.826L21.3173 198.345C22.003 197.91 22.0944 197.36 21.5916 196.695C17.9119 192.068 15.8778 186.707 15.4893 180.613C15.4893 180.453 15.4093 180.35 15.2493 180.304L13.8095 179.926C13.5666 179.864 13.3406 179.741 13.1499 179.567C12.9592 179.394 12.8093 179.176 12.7124 178.93C8.9871 168.689 7.45582 158.025 8.11861 146.937C8.18718 145.723 7.89006 144.6 7.22727 143.57C6.51877 142.447 6.1988 141.324 6.26736 140.202C6.33593 139.171 5.8674 138.713 4.86179 138.827L3.97045 138.965C3.81046 138.965 3.7419 139.034 3.76475 139.171C3.9933 145.975 3.82189 152.928 3.25052 160.03Z" stroke="#5FAE3B" stroke-width="2"/>
<path d="M139.697 0H175.445C182.597 7.55997 188.058 17.5264 191.829 29.8993C192.084 30.7422 192.521 31.5192 193.111 32.1765C193.701 32.8338 194.429 33.3556 195.244 33.7056C196.06 34.0556 196.943 34.2254 197.833 34.2032C198.723 34.181 199.598 33.9674 200.397 33.5772C209.126 29.2637 217.169 26.0285 224.526 23.8718C226.838 23.1918 229.29 23.1429 231.625 23.7302C233.959 24.3176 236.089 25.5194 237.79 27.2091L254.482 43.8274C256.404 45.7473 257.717 48.1862 258.259 50.843C258.801 53.4997 258.548 56.258 257.532 58.7771L248.278 81.7635C248.007 82.4409 247.873 83.1652 247.884 83.8938C247.896 84.6223 248.053 85.3407 248.347 86.0066C248.641 86.6726 249.065 87.2728 249.594 87.7722C250.124 88.2716 250.749 88.66 251.432 88.9148C258.858 91.7072 266.649 94.8742 274.807 98.4158C279.914 100.595 282.484 104.477 282.861 110.096C283.661 121.198 283.444 131.823 282.21 141.971L281.01 129.779C280.713 126.692 279.708 126.442 277.994 129.03L262.502 152.289C259.92 153.765 256.013 155.388 250.78 157.159C248.381 157.976 247.524 159.849 248.21 162.778C228.216 174.311 213.478 181.348 203.996 183.891C183.82 189.272 169.539 191.86 161.153 191.655C127.815 190.77 97.1628 180.985 69.1949 162.301C69.4919 159.055 67.8582 157.182 64.2936 156.682C59.7923 156.046 57.5416 155.138 57.5416 153.958L39.2734 129.405C39.0849 129.151 38.8294 128.955 38.5352 128.837C38.241 128.72 37.9197 128.685 37.6071 128.738C37.2945 128.791 37.0028 128.929 36.7645 129.137C36.5261 129.345 36.3505 129.615 36.2572 129.916C33.0697 140.404 38.2451 142.379 43.8319 148.85C37.9367 146.636 32.7955 141.29 33.3782 134.717C34.018 127.294 34.2922 119.427 34.2008 111.118C34.1665 104.477 38.8963 100.697 44.4831 98.2796C51.9092 95.0558 58.9811 91.991 65.6989 89.0851C67.0207 88.5185 68.0618 87.452 68.5948 86.1185C69.1278 84.785 69.1094 83.2928 68.5437 81.9678L58.7069 59.0836C57.7025 56.7171 57.4302 54.1082 57.9248 51.5906C58.4193 49.073 59.6583 46.7612 61.4831 44.9512L78.7917 27.7539C80.705 25.8536 83.1379 24.5533 85.7884 24.0145C88.4389 23.4757 91.1903 23.7221 93.701 24.7231L116.871 33.9177C117.615 34.2164 118.413 34.3573 119.215 34.3312C120.018 34.3052 120.805 34.1129 121.528 33.7666C122.251 33.4203 122.893 32.9277 123.413 32.3203C123.933 31.713 124.32 31.0044 124.548 30.2399C127.953 18.9113 133.002 8.83132 139.697 0ZM219.728 123.105C219.728 106.983 213.282 91.5222 201.809 80.1226C190.335 68.7229 174.774 62.3187 158.548 62.3187C142.322 62.3187 126.761 68.7229 115.288 80.1226C103.814 91.5222 97.3684 106.983 97.3684 123.105C97.3684 139.226 103.814 154.688 115.288 166.087C126.761 177.487 142.322 183.891 158.548 183.891C174.774 183.891 190.335 177.487 201.809 166.087C213.282 154.688 219.728 139.226 219.728 123.105Z" fill="#004B88"/>
<path d="M0 165.824V141.644C5.37338 117.599 17.2732 98.5953 35.6994 84.6318C38.2965 82.6791 38.5204 82.9289 36.3711 85.381C-13.6685 142.291 38.554 195.523 93.4633 211.666C104.915 215.003 115.461 206.523 125.838 202.572C130.898 200.642 135.891 200.597 140.816 202.436C141.667 202.754 142.451 203.197 143.167 203.764C146.548 206.33 146.324 208.521 142.495 210.337C135.006 213.879 121.976 217.796 123.588 228.524C126.174 245.655 146.022 232.611 153.712 229.955C154.769 229.59 155.908 229.547 156.988 229.831C158.069 230.116 159.043 230.715 159.791 231.555C167 239.525 174.221 247.71 181.452 256.111C184.273 259.38 183.132 263.297 182.964 267.213C182.919 268.507 182.247 269.223 180.949 269.359C177.232 269.722 174.579 271.607 172.989 275.012C172.385 276.329 171.4 277.203 170.034 277.635C168.825 278.021 167.638 278.475 166.474 278.997C162.007 281.006 161.705 285.23 155.761 285.57C154.395 285.638 153.287 286.217 152.436 287.307L150.186 290.202C149.447 291.178 148.473 291.666 147.264 291.666C143.951 291.689 141.331 290.327 139.406 287.58C138.541 286.331 138.169 284.812 138.365 283.322C138.745 280.575 137.973 278.282 136.047 276.443C130.517 271.175 125.301 265.011 120.397 257.95C119.681 256.928 118.785 256.122 117.711 255.532C115.83 254.464 114.543 252.909 113.849 250.866C113.456 249.698 112.687 248.701 111.666 248.039C105.307 243.907 99.3852 244.974 93.8999 251.24C93.0043 252.285 91.9072 252.591 90.6087 252.16C55.9503 240.512 26.1952 221.747 7.75782 189.12C5.63086 185.328 3.04492 177.563 0 165.824ZM3.19045 158.059C2.38444 168.651 10.1423 186.565 17.1277 195.965C17.4688 196.418 17.9647 196.725 18.5178 196.826C19.071 196.927 19.6413 196.814 20.1166 196.51L20.889 196.033C21.5607 195.602 21.6503 195.057 21.1577 194.399C17.553 189.812 15.5604 184.499 15.1798 178.46C15.1798 178.301 15.1014 178.199 14.9447 178.153L13.5342 177.779C13.2963 177.717 13.0749 177.595 12.8881 177.423C12.7013 177.251 12.5544 177.035 12.4595 176.791C8.81011 166.642 7.31004 156.073 7.95932 145.084C8.02649 143.88 7.73543 142.768 7.08615 141.746C6.39209 140.633 6.07864 139.521 6.14581 138.408C6.21297 137.387 5.754 136.933 4.76888 137.046L3.8957 137.182C3.73898 137.182 3.67181 137.25 3.6942 137.387C3.91809 144.13 3.75017 151.021 3.19045 158.059Z" fill="#268A38"/>
<path d="M316.666 149.009L300.675 150C306.255 124.86 298.144 102.447 284.138 84.5661C282.968 83.079 283.074 82.9374 284.454 84.1412C302.267 99.9568 313.004 121.579 316.666 149.009Z" fill="#87C53E"/>
<path d="M283.334 139.694C278.812 144.728 273.256 148.163 266.667 150L279.768 126.768C281.218 124.183 282.068 124.432 282.319 127.516L283.334 139.694Z" fill="#003566"/>
<path d="M58.333 158.333C52.482 157.501 47.3495 155.815 42.9356 153.275C36.6611 146.867 30.8486 144.911 34.4285 134.523C34.5333 134.225 34.7305 133.958 34.9982 133.752C35.2659 133.547 35.5935 133.41 35.9446 133.357C36.2957 133.305 36.6565 133.339 36.9869 133.455C37.3173 133.572 37.6043 133.767 37.8159 134.018L58.333 158.333Z" fill="#003566"/>
<path d="M19.0797 199.126C9.55641 189.962 -1.01989 172.496 0.0789452 162.17C0.842026 155.308 1.07095 148.59 0.765718 142.016C0.735195 141.883 0.826765 141.816 1.04043 141.816L2.23083 141.683C3.57386 141.573 4.19958 142.016 4.10801 143.012C4.01644 144.096 4.44377 145.181 5.38999 146.266C6.27516 147.262 6.67197 148.346 6.5804 149.52C5.69522 160.233 7.74028 170.537 12.7156 180.432C12.8449 180.67 13.0451 180.881 13.2998 181.048C13.5545 181.216 13.8564 181.335 14.1807 181.395L16.1036 181.76C16.3173 181.805 16.4241 181.904 16.4241 182.059C16.943 187.947 19.6596 193.127 24.5738 197.598C25.2454 198.24 25.1233 198.772 24.2076 199.192L23.1545 199.657C22.5065 199.954 21.729 200.063 20.9749 199.965C20.2208 199.867 19.5447 199.567 19.0797 199.126Z" fill="#87C53E"/>
<path d="M416.666 175C425.87 175 433.332 167.538 433.332 158.334C433.332 149.129 425.87 141.667 416.666 141.667C407.461 141.667 399.999 149.129 399.999 158.334C399.999 167.538 407.461 175 416.666 175Z" fill="#2A4A9B"/>
<path d="M322.612 150.549C338.783 149.303 352.732 150.178 364.46 153.174C390.399 159.767 397.477 187.911 387.032 209.987C378.065 228.913 350.236 234.03 330.721 231.865C329.621 231.734 329.072 232.193 329.072 233.243V274.18C329.072 274.727 328.785 275 328.213 275H301.62C300.956 275 300.624 274.683 300.624 274.049L300.418 211.003L300.074 161.604C299.685 156.836 300.83 153.458 303.51 151.468L322.612 150.549ZM329.037 172.789L329.106 208.806C329.106 209.354 329.334 209.879 329.74 210.267C330.146 210.654 330.696 210.872 331.27 210.872L343.192 210.839C348.568 210.83 353.72 208.849 357.516 205.33C361.311 201.811 363.438 197.044 363.429 192.077V189.387C363.424 186.927 362.896 184.492 361.873 182.221C360.85 179.951 359.353 177.888 357.468 176.152C355.582 174.416 353.345 173.04 350.884 172.103C348.423 171.165 345.786 170.685 343.124 170.69L331.202 170.723C330.628 170.723 330.077 170.94 329.671 171.328C329.265 171.715 329.037 172.241 329.037 172.789Z" fill="#2E4B9A"/>
<path d="M596.494 177.502C587.865 173.587 579.347 171.739 570.94 171.959C564.985 172.124 556.167 174.269 554.204 180.769C550.444 193.275 569.975 198.818 578.859 202.118C599.621 209.861 609.414 222.454 608.239 239.899C607.285 254.021 599.732 264.03 585.58 269.925C568.678 276.987 549.169 276.679 527.054 269.001C526.334 268.76 525.733 268.257 525.369 267.591C525.005 266.924 524.906 266.144 525.091 265.405L529.649 247.224C530.026 245.728 530.902 245.332 532.278 246.036C541.993 250.985 572.271 259.004 578.793 244.947C585.647 230.264 564.885 223.763 554.47 220.167C535.039 213.468 520.532 195.848 528.318 174.961C539.032 146.255 578.127 146.123 602.583 155.659C603.204 155.901 603.425 156.329 603.248 156.945L597.592 176.974C597.563 177.086 597.51 177.19 597.436 177.279C597.363 177.369 597.271 177.441 597.166 177.491C597.062 177.541 596.947 177.568 596.831 177.57C596.715 177.572 596.6 177.549 596.494 177.502Z" fill="#39B54A"/>
<path d="M299.646 158.333L300.001 209.311C274.009 236.661 236.193 252.909 198.448 258.223C193.726 258.9 188.471 256.361 185.311 253.044C177.783 245.101 170.409 237.327 163.189 229.722C161.966 228.436 160.341 227.558 158.552 227.217C156.763 226.875 154.904 227.089 153.247 227.826L137.41 234.799C135.6 235.602 133.538 235.72 131.64 235.13C129.741 234.539 128.149 233.284 127.184 231.617L126.439 230.331C123.74 225.682 124.841 222.094 129.741 219.567C139.612 214.49 150.122 209.378 161.272 204.233C165.84 202.112 170.113 202.529 174.09 205.486C179.298 209.367 184.352 213.531 189.252 217.976C189.692 218.376 190.225 218.676 190.809 218.852C191.394 219.028 192.014 219.075 192.625 218.992C217.457 215.516 240.064 208.069 260.445 196.651C276.708 187.579 289.775 174.807 299.646 158.333Z" fill="#88C43F"/>
<path d="M490.248 183.636H507.511C507.729 183.636 507.938 183.725 508.093 183.884C508.247 184.043 508.333 184.258 508.333 184.483V203.997C508.333 204.562 508.048 204.844 507.478 204.844L490.38 204.811C489.13 204.811 488.516 205.454 488.538 206.742C488.692 217.854 488.681 228.966 488.505 240.079C488.341 251.022 496.989 254.206 506.689 251.496C507.237 251.36 507.511 251.575 507.511 252.14L507.478 271.552C507.478 272.049 507.248 272.377 506.788 272.535C496.682 275.855 486.861 275.821 477.325 272.433C466.145 268.435 462.134 256.341 461.739 245.262C461.323 233.404 461.268 220.734 461.575 207.25C461.618 205.624 460.862 204.811 459.306 204.811H452.466C450.822 204.811 450 203.975 450 202.303V186.177C450 184.506 450.811 183.659 452.433 183.636H459.832C460.271 183.627 460.689 183.445 460.996 183.128C461.304 182.811 461.476 182.386 461.476 181.942L461.443 167.069C461.443 164.969 462.43 163.693 464.402 163.241L484.658 158.498C487.289 157.888 488.604 158.972 488.604 161.75V181.942C488.604 183.071 489.152 183.636 490.248 183.636Z" fill="#2E4B9A"/>
<path d="M68.0137 166.667C96.1357 185.364 126.957 195.156 160.478 196.042C168.91 196.246 183.27 193.656 203.557 188.272C213.092 185.727 227.911 178.685 248.015 167.144L257.837 189.192C258.894 191.578 258.262 193.395 255.941 194.645C233.38 206.731 212.552 214.057 193.46 216.625C192.104 216.806 190.944 216.397 189.979 215.398C179.571 204.493 170.99 195.122 154.792 204.834C154.139 205.223 153.393 205.429 152.633 205.429C151.874 205.429 151.13 205.223 150.484 204.834C144.074 201.085 136.871 197.03 128.979 199.688C122.155 202.028 115.607 204.743 109.335 207.833C103.27 210.831 97.0202 211.172 90.5871 208.855C79.7657 204.97 69.6335 200.188 60.1906 194.508C58.4215 193.44 57.916 191.941 58.6742 190.01L68.0137 166.667Z" fill="#003566"/>
<path d="M432.202 183.333H401.129C400.505 183.333 399.999 183.759 399.999 184.284V274.049C399.999 274.574 400.505 275 401.129 275H432.202C432.826 275 433.332 274.574 433.332 274.049V184.284C433.332 183.759 432.826 183.333 432.202 183.333Z" fill="#2E4B9A"/>
<path d="M112.865 279.216C109.997 278.66 108.517 276.765 108.426 273.531C108.403 272.091 107.811 271.055 106.65 270.423L102.382 268.111C101.312 267.505 100.629 266.57 100.333 265.307C97.5323 253.406 113.139 242.831 118.159 256.286C118.682 257.676 119.445 258.863 120.447 259.849C125.933 265.205 130.555 271.118 134.311 277.586C136.019 280.505 139.195 281.225 140.356 283.802C143.543 290.826 140.914 296.082 132.467 299.569C131.246 300.074 129.912 300.137 128.66 299.749C127.408 299.36 126.301 298.541 125.501 297.409C124.431 295.918 123.816 294.25 123.657 292.406C123.497 290.511 122.575 289.386 120.891 289.032C117.635 288.325 115.893 286.203 115.666 282.665C115.552 280.694 114.618 279.545 112.865 279.216Z" fill="#87C53E"/>
</svg>